FILE "Doukyuusei 2 (1996)(NEC Avenue)(JP)[FXNAV601].img" BINARY
  TRACK 01 AUDIO
    INDEX 01 00:00:00
  TRACK 02 MODE1/2352
    PREGAP 00:03:00
    INDEX 01 00:55:45
  TRACK 03 MODE1/2352
    INDEX 01 01:02:34
  TRACK 04 MODE1/2352
    INDEX 01 01:16:16
  TRACK 05 MODE1/2352
    INDEX 01 09:17:59
  TRACK 06 AUDIO
    PREGAP 00:02:00
    INDEX 01 48:58:70
  TRACK 07 AUDIO
    INDEX 01 50:03:46
  TRACK 08 AUDIO
    INDEX 01 52:14:73
